<svg width="740" height="445" viewBox="0 0 740 445" fill="none" xmlns="http://www.w3.org/2000/svg">
<g clip-path="url(#clip0_577_119)">
<path d="M280.536 127.828V205.252C280.536 215.851 278.462 225.875 274.314 235.322C270.397 244.77 264.867 253.065 257.723 260.209C250.58 267.352 242.285 272.997 232.837 277.145C223.62 281.062 213.596 283.021 202.766 283.021C190.093 283.021 178.341 280.256 167.511 274.726C156.681 268.965 147.694 261.246 140.551 251.568C133.408 261.246 124.421 268.965 113.591 274.726C102.991 280.256 91.2396 283.021 78.3356 283.021C67.736 283.021 57.7124 281.062 48.2649 277.145C38.8173 272.997 30.522 267.352 23.3787 260.209C16.2355 253.065 10.59 244.77 6.4423 235.322C2.52504 225.875 0.566406 215.851 0.566406 205.252V127.828H31.6741V205.252C31.6741 211.704 32.8262 217.81 35.1305 223.571C37.6652 229.331 41.0064 234.401 45.1541 238.779C49.5322 242.927 54.4864 246.268 60.0167 248.802C65.7773 251.107 71.8837 252.259 78.3356 252.259C84.7876 252.259 90.8939 251.107 96.6546 248.802C102.415 246.268 107.369 242.927 111.517 238.779C115.895 234.401 119.236 229.331 121.541 223.571C124.075 217.81 125.343 211.704 125.343 205.252V127.828H156.105V205.252C156.105 211.704 157.257 217.81 159.561 223.571C162.096 229.331 165.437 234.401 169.585 238.779C173.963 242.927 178.917 246.268 184.447 248.802C190.208 251.107 196.314 252.259 202.766 252.259C209.218 252.259 215.325 251.107 221.085 248.802C226.846 246.268 231.8 242.927 235.948 238.779C240.326 234.401 243.667 229.331 245.972 223.571C248.506 217.81 249.774 211.704 249.774 205.252V127.828H280.536Z" fill="#A94B9C"/>
<path d="M557.669 127.482V158.245H542.116C535.664 158.245 529.557 159.512 523.797 162.047C518.266 164.351 513.312 167.692 508.934 172.07C504.786 176.218 501.445 181.172 498.91 186.933C496.606 192.463 495.454 198.454 495.454 204.906V282.675H464.346V204.906C464.346 194.076 466.305 184.052 470.222 174.835C474.37 165.388 480.015 157.208 487.159 150.295C494.302 143.152 502.597 137.621 512.045 133.704C521.492 129.556 531.516 127.482 542.116 127.482H557.669Z" fill="#A94B9C"/>
<path d="M721.814 142.691C721.814 155.595 718.933 167.462 713.173 178.292C707.643 188.891 700.038 197.763 690.361 204.906C700.038 212.049 707.643 221.036 713.173 231.866C718.933 242.696 721.814 254.448 721.814 267.121V282.675H691.052V267.121C691.052 260.669 689.784 254.678 687.25 249.148C684.945 243.387 681.604 238.433 677.226 234.286C673.078 229.907 668.124 226.566 662.364 224.262C656.833 221.727 650.842 220.46 644.39 220.46C637.938 220.46 631.832 221.727 626.071 224.262C620.311 226.566 615.241 229.907 610.863 234.286C606.715 238.433 603.374 243.387 600.839 249.148C598.535 254.678 597.383 260.669 597.383 267.121V282.675H566.621V267.121V65.2671H597.383V205.597C604.065 200.528 611.324 196.611 619.158 193.846C627.223 191.08 635.634 189.698 644.39 189.698C650.842 189.698 656.833 188.546 662.364 186.241C668.124 183.707 673.078 180.366 677.226 176.218C681.604 171.84 684.945 166.77 687.25 161.01C689.784 155.249 691.052 149.143 691.052 142.691V127.482H721.814V142.691Z" fill="#A94B9C"/>
<path d="M31.0973 354.07H61.62L49.2124 323.175H43.8771L31.0973 354.07ZM59.3867 309.403L88.5445 378.017H72.1665L67.6998 367.594H25.3898L20.9231 378.017H4.29688L34.1992 309.403H59.3867Z" fill="#5EC4C7"/>
<path d="M127.909 309.403L151.979 359.157H152.6L177.663 309.403H197.515V378.017H182.254V329.999H181.51L158.307 378.017H145.279L122.946 329.999H122.201V378.017H107.188V309.403H127.909Z" fill="#5EC4C7"/>
<path d="M262.795 309.403C265.855 309.403 268.668 309.857 271.232 310.767C273.879 311.595 276.154 312.835 278.056 314.49C279.959 316.061 281.406 317.964 282.399 320.197C283.474 322.431 284.012 324.953 284.012 327.766C284.012 330.247 283.557 332.522 282.647 334.59C281.82 336.575 280.496 338.188 278.677 339.429C281.82 341.083 284.26 343.317 285.997 346.129C287.817 348.941 288.727 352.457 288.727 356.676C288.727 359.653 288.148 362.424 286.99 364.989C285.914 367.553 284.343 369.828 282.275 371.813C280.29 373.715 277.891 375.246 275.078 376.404C272.349 377.479 269.371 378.017 266.145 378.017H218.624V309.403H262.795ZM234.133 335.831H263.291C264.946 335.831 266.269 335.21 267.262 333.97C268.337 332.646 268.875 331.199 268.875 329.627C268.875 328.138 268.378 326.732 267.386 325.408C266.476 324.002 264.697 323.299 262.05 323.299H234.133V335.831ZM234.133 363.996H265.649C268.13 363.996 270.074 363.334 271.48 362.011C272.886 360.605 273.589 358.826 273.589 356.676C273.589 354.442 272.886 352.664 271.48 351.34C270.074 350.017 268.254 349.355 266.021 349.355H234.133V363.996Z" fill="#5EC4C7"/>
<path d="M323.274 309.403V378.017H307.765V309.403H323.274Z" fill="#5EC4C7"/>
<path d="M413.181 309.403V323.299H385.264V378.017H369.754V323.299H341.837V309.403H413.181Z" fill="#5EC4C7"/>
<path d="M447.273 309.403V378.017H431.763V309.403H447.273Z" fill="#5EC4C7"/>
<path d="M482.834 343.772C482.834 347.328 483.413 350.513 484.571 353.325C485.812 356.138 487.425 358.537 489.41 360.522C491.478 362.424 493.918 363.913 496.731 364.989C499.543 365.981 502.562 366.478 505.788 366.478C509.014 366.478 512.033 365.981 514.846 364.989C517.658 363.913 520.057 362.424 522.042 360.522C524.11 358.537 525.723 356.138 526.881 353.325C528.122 350.513 528.742 347.328 528.742 343.772C528.742 340.215 528.122 337.03 526.881 334.218C525.723 331.405 524.11 329.048 522.042 327.145C520.057 325.16 517.658 323.671 514.846 322.679C512.033 321.603 509.014 321.066 505.788 321.066C502.562 321.066 499.543 321.603 496.731 322.679C493.918 323.671 491.478 325.16 489.41 327.145C487.425 329.048 485.812 331.405 484.571 334.218C483.413 337.03 482.834 340.215 482.834 343.772ZM544.252 343.772C544.252 349.148 543.218 354.07 541.15 358.537C539.082 362.921 536.311 366.684 532.837 369.828C529.363 372.971 525.268 375.411 520.553 377.148C515.921 378.885 510.999 379.754 505.788 379.754C500.577 379.754 495.614 378.885 490.899 377.148C486.267 375.411 482.214 372.971 478.74 369.828C475.265 366.684 472.494 362.921 470.426 358.537C468.359 354.07 467.325 349.148 467.325 343.772C467.325 338.395 468.359 333.515 470.426 329.131C472.494 324.664 475.265 320.859 478.74 317.716C482.214 314.572 486.267 312.132 490.899 310.395C495.614 308.658 500.577 307.79 505.788 307.79C510.999 307.79 515.921 308.658 520.553 310.395C525.268 312.132 529.363 314.572 532.837 317.716C536.311 320.859 539.082 324.664 541.15 329.131C543.218 333.515 544.252 338.395 544.252 343.772Z" fill="#5EC4C7"/>
<path d="M579.006 309.403L620.075 355.559V309.403H635.46V378.017H620.695L579.626 331.736V378.017H564.365V309.403H579.006Z" fill="#5EC4C7"/>
<path d="M716.712 329.379C712.659 326.566 708.481 324.581 704.18 323.423C699.879 322.182 694.998 321.562 689.539 321.562C686.148 321.562 683.377 321.769 681.226 322.182C679.075 322.596 677.38 323.134 676.139 323.795C674.898 324.457 674.03 325.243 673.533 326.153C673.12 326.98 672.913 327.89 672.913 328.882C672.913 330.868 673.74 332.233 675.394 332.977C677.049 333.639 679.199 334.135 681.846 334.466L702.443 336.823C709.805 337.733 715.595 339.801 719.814 343.027C724.032 346.253 726.141 351.051 726.141 357.42C726.141 361.308 725.232 364.658 723.412 367.47C721.675 370.2 719.193 372.516 715.967 374.418C712.824 376.238 709.06 377.562 704.676 378.389C700.375 379.299 695.66 379.754 690.532 379.754C683.501 379.754 677.173 378.927 671.548 377.272C666.006 375.618 660.505 372.764 655.046 368.711L662.366 356.676C667.081 359.984 671.796 362.424 676.511 363.996C681.309 365.485 686.561 366.229 692.269 366.229C697.728 366.229 702.236 365.526 705.793 364.12C709.35 362.714 711.128 360.563 711.128 357.668C711.128 355.766 710.549 354.359 709.391 353.45C708.233 352.457 706.207 351.795 703.311 351.464L680.233 348.859C673.202 348.032 667.66 346.129 663.607 343.151C659.637 340.091 657.651 335.376 657.651 329.007C657.651 325.367 658.479 322.224 660.133 319.577C661.87 316.93 664.186 314.738 667.081 313.001C669.976 311.264 673.326 309.982 677.131 309.154C681.019 308.244 685.155 307.79 689.539 307.79C695.991 307.79 702.029 308.493 707.654 309.899C713.279 311.305 718.78 313.993 724.156 317.964L716.712 329.379Z" fill="#5EC4C7"/>
<path d="M371.307 138.888C391.717 138.888 408.262 122.343 408.262 101.933C408.262 81.523 391.717 64.9775 371.307 64.9775C350.897 64.9775 334.352 81.523 334.352 101.933C334.352 122.343 350.897 138.888 371.307 138.888Z" fill="#5EC4C7"/>
<path d="M412.775 139.086C404.912 147.145 394.887 153.042 383.486 155.401L376.017 167.392L386.631 222.039L370.119 239.533L354.787 222.039L364.222 167.392L355.77 154.615C345.745 151.863 336.702 146.359 329.626 139.086C307.61 152.846 292.867 177.417 292.867 205.527C292.867 248.772 327.857 283.762 371.102 283.762C414.348 283.762 449.337 248.772 449.337 205.527C449.534 177.417 434.988 152.846 412.775 139.086Z" fill="#A94B9C"/>
</g>
<defs>
<clipPath id="clip0_577_119">
<rect width="739.105" height="443.66" fill="white" transform="translate(0.566406 0.700439)"/>
</clipPath>
</defs>
</svg>
