<svg width="569" height="796" viewBox="0 0 569 796" fill="none" preserveAspectRatio="xMinYMid meet"  xmlns="http://www.w3.org/2000/svg">
<path d="M285.5 269C359.784 269 420 208.784 420 134.501C420 60.218 359.784 0 285.5 0C211.217 0 151 60.218 151 134.501C151 208.784 211.217 269 285.5 269Z" fill="#5EC4C7"/>
<path d="M436.037 270C407.444 299.3 370.989 320.74 329.53 329.317L302.369 372.912L340.967 571.593L280.922 635.196L225.168 571.593L259.478 372.912L228.743 326.459C192.287 316.453 159.403 296.443 133.672 270C53.6119 320.027 0 409.36 0 511.56C0 668.786 127.239 796 284.496 796C441.758 796 568.993 668.786 568.993 511.56C569.709 409.36 516.814 320.027 436.037 270Z" fill="#A94B9C"/>
</svg>
